<svg xmlns="http://www.w3.org/2000/svg" viewBox="0 0 362.98 86.62"><defs><style>.cls-1{fill:none;}.cls-2{fill:#2a2b2d;}.cls-3{fill:#8a8fa2;}</style></defs><g id="Capa_2" data-name="Capa 2"><g id="Capa_1-2" data-name="Capa 1"><g id="ULTIMA_LOGOS"><line class="cls-1" x1="40.04" y1="18.85" x2="43.06" y2="17.7"/><line class="cls-1" x1="57.59" y1="18.85" x2="54.51" y2="17.7"/><path class="cls-2" d="M166.4,61.23V0H177V61.23Z"/><path class="cls-2" d="M214.05,61.23V18.09h10.61V61.23Z"/><path class="cls-2" d="M286.35,61.23V35.82a30.47,30.47,0,0,0-.45-6,5.06,5.06,0,0,0-1.38-2.9,4.84,4.84,0,0,0-3.06-.76A9.33,9.33,0,0,0,276.32,28a26.87,26.87,0,0,0-5.06,4.44h0V61.23H260.65V35.82a34.43,34.43,0,0,0-.37-6.06A4.77,4.77,0,0,0,259,27.05a4.83,4.83,0,0,0-3.21-.84,9.36,9.36,0,0,0-4.56,1.5,25.68,25.68,0,0,0-5.63,4.75h0V61.25H235V18.09h10.61v5.06a.21.21,0,0,0,.37.14,24.8,24.8,0,0,1,5.84-4.62,14.47,14.47,0,0,1,7.2-1.81q5.38,0,8,1.85a9.44,9.44,0,0,1,3.52,5.47,33.09,33.09,0,0,1,6.93-5.51,15.15,15.15,0,0,1,7.55-1.81q6.29,0,9.17,3.58t2.88,12V61.24H286.35Z"/><path class="cls-2" d="M332.32,57.22a.21.21,0,0,0-.35-.15q-6.14,5.45-13.13,5.44-7.15,0-10.82-3.76a13.23,13.23,0,0,1-3.66-9.64,14.14,14.14,0,0,1,1.87-7.61,12.58,12.58,0,0,1,5.55-4.71,34.05,34.05,0,0,1,10.59-2.4l9.09-.86v-2q0-3.61-2.18-4.95a12.33,12.33,0,0,0-6.37-1.34A14.17,14.17,0,0,0,317,26.44a7.82,7.82,0,0,0-3.68,3.29L305,24.43s0,0,0,0a13.85,13.85,0,0,1,6.82-5.6,29,29,0,0,1,11.23-2q10.08,0,14.54,3.52t4.46,11.53V61.22h-9.75v-4Zm-.86-16-5.39.49c-3.81.33-6.56,1.05-8.25,2.18a5.67,5.67,0,0,0-2.53,5.06c0,2,.55,3.32,1.64,4a7.76,7.76,0,0,0,4.36,1.09A12.18,12.18,0,0,0,326,52.86a23.16,23.16,0,0,0,5.45-3.43h0Z"/><polygon class="cls-2" points="144.05 14.38 133.7 14.38 139.82 3.33 150.17 3.33 144.05 14.38"/><path class="cls-2" d="M146.86,44.76c0,5.39-3.07,8.88-7.82,8.88-4.93,0-8.11-3.48-8.11-8.88V18.21H120.47V44.45c0,11,7.27,18.06,18.51,18.06s18.29-6.92,18.29-18.06V18.21h-10.4V44.76Z"/><path class="cls-2" d="M356.82,26.61a2.15,2.15,0,0,0-.68-.43,2.44,2.44,0,0,0,1.66-.73,2.12,2.12,0,0,0,.62-1.53,2.06,2.06,0,0,0-.37-1.18,2,2,0,0,0-1-.78,6.66,6.66,0,0,0-2-.22h-2.76v8h1.3v-3.4h.76a1.72,1.72,0,0,1,1,.27,6.5,6.5,0,0,1,1.36,1.86l.71,1.27H359l-1-1.57A10,10,0,0,0,356.82,26.61Zm-1.71-1.35h-1.56V22.83H355a4.12,4.12,0,0,1,1.3.14,1.12,1.12,0,0,1,.75,1.06,1.08,1.08,0,0,1-.41.88A2.47,2.47,0,0,1,355.11,25.26Z"/><path class="cls-2" d="M361.22,20.78a4.59,4.59,0,0,0-1.08-1,7.66,7.66,0,0,0-9.24,0,4.85,4.85,0,0,0-1.06,1,7.91,7.91,0,0,0-1.77,4.89,7.76,7.76,0,0,0,1.48,4.5A5.84,5.84,0,0,0,351,31.6a7.63,7.63,0,0,0,9.1,0,5.75,5.75,0,0,0,1.44-1.47A7.85,7.85,0,0,0,363,25.65,8,8,0,0,0,361.22,20.78Zm-.76,8.68a5,5,0,0,1-1.09,1.1,6.51,6.51,0,0,1-3.85,1.3,6.27,6.27,0,0,1-3.09-.82,5.75,5.75,0,0,1-2.31-2.3,6.2,6.2,0,0,1,0-6.2,5.8,5.8,0,0,1,2.33-2.3,6.42,6.42,0,0,1,3-.81,6.31,6.31,0,0,1,3.05.81,5.67,5.67,0,0,1,2.33,2.3,6.26,6.26,0,0,1,.84,3.11A6.56,6.56,0,0,1,360.46,29.46Z"/><path class="cls-2" d="M206.78,26.53V18.1h-10V6.1H186.14V48.2q0,7.57,3.29,10.94t10.77,3.37a32,32,0,0,0,6.41-.7V53.35a.38.38,0,0,0-.5-.36,15.18,15.18,0,0,1-4.56.76A4.47,4.47,0,0,1,198,52.31c-.84-1-1.25-2.78-1.25-5.47V26.53Z"/><rect class="cls-2" x="214.05" y="1.77" width="10.61" height="10.61"/><path class="cls-3" d="M124.82,72.66V85.88h-2.51V72.66Z"/><path class="cls-3" d="M149.16,72.66V85.88h-4.25l-3.78-7.25c-.19-.36-.48-1-.88-1.9l-.42-1-.42-1h-.1l0,.87,0,.86,0,1.73v7.58h-2.51V72.65h4.25l3.44,6.7c.3.59.66,1.31,1.06,2.16l.5,1.07.5,1.08h.09l0-.85,0-.85,0-1.7V72.65h2.51Z"/><path class="cls-3" d="M163.71,74.78v3.56h5.93v2.11h-5.93v5.43H161.2V72.66H170v2.11h-6.24Z"/><path class="cls-3" d="M186.69,72.55c2.4,0,3.95.4,4.64,1.2s1,2.58,1,5.35q0,4.55-1,5.72t-5,1.18c-2.4,0-4-.39-4.66-1.17s-1.06-2.49-1.06-5.14q0-4.72,1-5.94T186.69,72.55Zm-.19,2.15c-1.69,0-2.67.22-2.95.65s-.43,1.93-.43,4.49c0,1.9.17,3,.5,3.43s1.31.58,2.94.58,2.49-.22,2.8-.65.46-1.76.46-4-.15-3.52-.44-3.93S188.13,74.7,186.5,74.7Z"/><path class="cls-3" d="M203.78,85.88V72.66h6.52a5,5,0,0,1,3.35.84,4.06,4.06,0,0,1,.92,3,5.59,5.59,0,0,1-.46,2.74,2.76,2.76,0,0,1-1.88,1v.09c1.47.09,2.2.95,2.2,2.57v2.91h-2.51V83.47a1.79,1.79,0,0,0-2-2H206.3v4.45Zm2.51-6.56h3.6a2.32,2.32,0,0,0,1.71-.46A2.86,2.86,0,0,0,212,77a3.08,3.08,0,0,0-.36-1.83,2.18,2.18,0,0,0-1.59-.41h-3.78v4.54Z"/><path class="cls-3" d="M241.74,72.66V85.88h-2.51v-7.2c0-.57,0-1.23.05-2l.05-1,0-1h-.08l-.3.92-.29.92q-.41,1.25-.63,1.83l-2.91,7.46h-2.29L230,78.48c-.16-.41-.38-1-.64-1.83l-.3-.92-.3-.91h-.08l.05,1,0,1c0,.75.06,1.39.06,1.93v7.2h-2.51V72.66h4.09l2.36,6.12c.16.43.38,1,.64,1.83l.29.92.3.91h.09l.28-.91.29-.91c.24-.77.45-1.38.62-1.82l2.32-6.14Z"/><path class="cls-3" d="M261.78,83.35h-5.7l-.82,2.54h-2.65L257,72.67h3.77l4.46,13.22h-2.61Zm-.59-1.85-2.29-6.89-2.25,6.89Z"/><path class="cls-3" d="M281.35,74.91v11h-2.51v-11H275V72.66H285.3v2.25Z"/><path class="cls-3" d="M298.8,72.66V85.88h-2.51V72.66Z"/><path class="cls-3" d="M319,81.17h2.52v.45c0,1.84-.34,3-1,3.57s-2.16.81-4.46.81q-3.92,0-4.81-1.28t-.9-6.84c0-2.18.41-3.62,1.22-4.3s2.51-1,5.1-1c1.89,0,3.15.28,3.78.85s1,1.69,1,3.36v.3H318.9v-.34c0-.87-.16-1.42-.49-1.66a4.38,4.38,0,0,0-2.23-.36c-1.56,0-2.49.19-2.8.57s-.47,1.51-.47,3.39c0,2.53.14,4,.42,4.49s1.19.7,2.73.7a4.88,4.88,0,0,0,2.43-.39,2,2,0,0,0,.56-1.7Z"/><path class="cls-3" d="M340.84,83.35h-5.7l-.82,2.54h-2.65l4.4-13.22h3.77l4.46,13.22h-2.61Zm-.58-1.85L338,74.61l-2.25,6.89Z"/><path class="cls-2" d="M95.55,8.26,89.33,2a7,7,0,0,0-4.92-2H54.91a.4.4,0,0,0-.4.4V17.7H43.07V.4a.4.4,0,0,0-.4-.4H13.17A6.92,6.92,0,0,0,8.26,2L2,8.26a7,7,0,0,0-2,4.91V73.44a7,7,0,0,0,2,4.92l6.22,6.22a7,7,0,0,0,4.91,2H84.43a6.92,6.92,0,0,0,4.91-2l6.22-6.22a7,7,0,0,0,2-4.92V13.17A7,7,0,0,0,95.55,8.26Zm-27,38.89c0,12-7.54,19.42-19.67,19.42S29,59,29,47.15V18.85H40V47.48c0,5.93,3.51,9.76,8.93,9.76,5.24,0,8.62-3.83,8.62-9.76V18.85h11v28.3Z"/></g></g></g></svg>