<svg xmlns="http://www.w3.org/2000/svg" viewBox="0 0 54.39 45.87"><g id="Capa_2" data-name="Capa 2"><g id="Capa_1-2" data-name="Capa 1"><path d="M43.63,17.09h.8a3.53,3.53,0,0,1,2.4.94l5.43,5a3.56,3.56,0,0,1,1.13,2.6v9.6a3.56,3.56,0,0,1-1.13,2.6l-5.43,5a3.54,3.54,0,0,1-2.41.95h-6a3.59,3.59,0,0,1-2.57-1.11l-5.77-6.09a2.59,2.59,0,0,0-3.76,0l-5.78,6.09A3.55,3.55,0,0,1,18,43.86H12a3.51,3.51,0,0,1-2.41-.94l-5.44-5A3.56,3.56,0,0,1,3,35.28v-9.6a3.55,3.55,0,0,1,1.13-2.6l5.44-5A3.52,3.52,0,0,1,12,17.09H43.63m.81-2H12a5.54,5.54,0,0,0-3.77,1.48l-5.44,5A5.55,5.55,0,0,0,1,25.68v9.6a5.54,5.54,0,0,0,1.77,4.06l5.44,5A5.49,5.49,0,0,0,12,45.86h6a5.54,5.54,0,0,0,4-1.72L27.77,38a.6.6,0,0,1,.43-.18.61.61,0,0,1,.43.18l5.77,6.1a5.56,5.56,0,0,0,4,1.73h6a5.55,5.55,0,0,0,3.77-1.48l5.43-5a5.52,5.52,0,0,0,1.77-4.06v-9.6a5.54,5.54,0,0,0-1.77-4.06l-5.43-5.05a5.54,5.54,0,0,0-3.75-1.47Z" transform="translate(-1)" style="fill:#4d4d4d"/><circle cx="36.19" cy="30.05" r="1.81" style="fill:#4f4f4f"/><circle cx="40.97" cy="25.29" r="1.81" style="fill:#4f4f4f"/><circle cx="40.69" cy="34.55" r="1.81" style="fill:#4f4f4f"/><circle cx="45.47" cy="29.79" r="1.81" style="fill:#4f4f4f"/><path d="M19.05,31.16H16.68a.26.26,0,0,0-.26.26v2.37a.26.26,0,0,1-.26.26H13a.26.26,0,0,1-.26-.26V31.42a.27.27,0,0,0-.27-.26H10.13a.26.26,0,0,1-.26-.26V27.76a.25.25,0,0,1,.26-.26h2.36a.27.27,0,0,0,.27-.27V24.87A.26.26,0,0,1,13,24.6h3.14a.27.27,0,0,1,.26.27v2.36a.27.27,0,0,0,.26.27h2.37a.26.26,0,0,1,.26.26V30.9A.26.26,0,0,1,19.05,31.16Z" transform="translate(-1)" style="fill:#4f4f4f"/><path d="M27.39,16a1,1,0,0,1-1,1" transform="translate(-1)" style="fill:none"/><path d="M29.39,16a8,8,0,0,0-8-8" transform="translate(-1)" style="fill:none;stroke:#4d4d4d;stroke-miterlimit:10;stroke-width:2px"/><path d="M13.39,0a8,8,0,0,0,8,8" transform="translate(-1)" style="fill:none;stroke:#4d4d4d;stroke-miterlimit:10;stroke-width:2px"/></g></g></svg>