<svg xmlns="http://www.w3.org/2000/svg" viewBox="0 0 62 63"><g id="Capa_2" data-name="Capa 2"><g id="Capa_1-2" data-name="Capa 1"><path d="M15.27,52.15H4a3,3,0,0,1-3-3V22a3,3,0,0,1,3-3H58a3,3,0,0,1,3,3V49.16a3,3,0,0,1-3,3H47.27" style="fill:none;stroke:#4f4f4f;stroke-linejoin:round;stroke-width:2px"/><path d="M18,1H44a3,3,0,0,1,3,3V19a0,0,0,0,1,0,0H15a0,0,0,0,1,0,0V4a3,3,0,0,1,3-3Z" style="fill:none;stroke:#4f4f4f;stroke-linejoin:round;stroke-width:2px"/><path d="M18,44H44a3,3,0,0,1,3,3V62a0,0,0,0,1,0,0H15a0,0,0,0,1,0,0V47A3,3,0,0,1,18,44Z" transform="translate(62 106) rotate(180)" style="fill:none;stroke:#4f4f4f;stroke-linejoin:round;stroke-width:2px"/><line x1="53.28" y1="44" x2="8.72" y2="44" style="fill:none;stroke:#4d4d4d;stroke-linecap:round;stroke-miterlimit:10;stroke-width:2px"/><line x1="21.45" y1="50" x2="40.55" y2="50" style="fill:none;stroke:#4d4d4d;stroke-linecap:round;stroke-miterlimit:10;stroke-width:2px"/><line x1="49.95" y1="25.5" x2="55" y2="25.5" style="fill:none;stroke:#4d4d4d;stroke-linecap:round;stroke-miterlimit:10;stroke-width:2px"/><line x1="21.45" y1="55" x2="40.55" y2="55" style="fill:none;stroke:#4d4d4d;stroke-linecap:round;stroke-miterlimit:10;stroke-width:2px"/></g></g></svg>