<svg xmlns="http://www.w3.org/2000/svg" viewBox="0 0 62 62"><g id="Capa_2" data-name="Capa 2"><g id="Capa_1-2" data-name="Capa 1"><rect x="16.44" y="16.44" width="29.12" height="29.12" rx="2.74" style="fill:none;stroke:#4f4f4f;stroke-linejoin:round;stroke-width:2px"/><rect x="8.92" y="8.92" width="44.15" height="44.15" rx="2.74" style="fill:none;stroke:#4f4f4f;stroke-linejoin:round;stroke-width:2px"/><rect x="53" y="18" width="9" height="3" rx="1.5" style="fill:#4f4f4f"/><rect x="53" y="29" width="9" height="3" rx="1.5" style="fill:#4f4f4f"/><rect x="53" y="40" width="9" height="3" rx="1.5" style="fill:#4f4f4f"/><rect y="18" width="9" height="3" rx="1.5" style="fill:#4f4f4f"/><rect y="29" width="9" height="3" rx="1.5" style="fill:#4f4f4f"/><rect y="40" width="9" height="3" rx="1.5" style="fill:#4f4f4f"/><rect x="16" y="3" width="9" height="3" rx="1.5" transform="translate(16 25) rotate(-90)" style="fill:#4f4f4f"/><rect x="27" y="3" width="9" height="3" rx="1.5" transform="translate(27 36) rotate(-90)" style="fill:#4f4f4f"/><rect x="38" y="3" width="9" height="3" rx="1.5" transform="translate(38 47) rotate(-90)" style="fill:#4f4f4f"/><rect x="16" y="56" width="9" height="3" rx="1.5" transform="translate(-37 78) rotate(-90)" style="fill:#4f4f4f"/><rect x="27" y="56" width="9" height="3" rx="1.5" transform="translate(-26 89) rotate(-90)" style="fill:#4f4f4f"/><rect x="38" y="56" width="9" height="3" rx="1.5" transform="translate(-15 100) rotate(-90)" style="fill:#4f4f4f"/></g></g></svg>